<?xml version="1.0" encoding="iso-8859-1"?>
<!-- Generator: Adobe Illustrator 19.0.0, SVG Export Plug-In . SVG Version: 6.00 Build 0)  -->
<svg version="1.1" id="Capa_1" xmlns="http://www.w3.org/2000/svg" xmlns:xlink="http://www.w3.org/1999/xlink" x="0px" y="0px"
	 viewBox="0 0 486.143 486.143" style="enable-background:new 0 0 486.143 486.143;" xml:space="preserve">
<g>
	<g>
		<circle cx="416.787" cy="170.289" r="13.7"/>
		<path d="M421.487,281.289h-75.3l-51.1,51.1c-3.5,3.5-9.4,1-9.4-3.9v-52.9c-44.1-14.7-75.9-56.2-75.9-105.3
			c0-61.3,49.7-111,111-111h91.2c-31.3-33.3-74.5-55.4-122.6-58.8c-105.4-7.5-193.8,72.2-200.5,174.3l-0.5,5.2
			c0,17-6.3,43.3-14.2,58.4c-8.3,15.8-16.9,31.3-24,42.3c-7,10.8,0.8,25,13.6,25h24.5v89.9c0,18.2,14.7,32.9,32.9,32.9h51.3v45.2
			c0,8.5,8.4,14.5,16.5,11.8l215.8-73.5c7.5-2.6,12.6-9.6,12.6-17.6v-84.3c8-9.3,15.1-19.4,21.2-30.1
			C432.987,280.689,427.287,281.289,421.487,281.289z"/>
		<circle cx="325.487" cy="170.289" r="13.7"/>
		<circle cx="371.087" cy="170.289" r="13.7"/>
	</g>
</g>
<g>
</g>
<g>
</g>
<g>
</g>
<g>
</g>
<g>
</g>
<g>
</g>
<g>
</g>
<g>
</g>
<g>
</g>
<g>
</g>
<g>
</g>
<g>
</g>
<g>
</g>
<g>
</g>
<g>
</g>
</svg>
