<?xml version="1.0" encoding="iso-8859-1"?>
<!-- Generator: Adobe Illustrator 19.0.0, SVG Export Plug-In . SVG Version: 6.00 Build 0)  -->
<svg version="1.1" id="Layer_1" xmlns="http://www.w3.org/2000/svg" xmlns:xlink="http://www.w3.org/1999/xlink" x="0px" y="0px"
	 viewBox="0 0 511.99 511.99" style="enable-background:new 0 0 511.99 511.99;" xml:space="preserve">
<g>
	<g>
		<g>
			<path d="M505.019,218.869l-42.667-38.784l-192-174.549c-8.128-7.381-20.587-7.381-28.715,0l-192,174.549L6.971,218.869
				c-8.704,7.915-9.344,21.419-1.429,30.144c7.957,8.725,21.461,9.365,30.144,1.429l6.976-6.357v246.571
				c0,11.776,9.536,21.333,21.333,21.333h384c11.797,0,21.333-9.557,21.333-21.333V244.085l6.976,6.357
				c4.096,3.712,9.237,5.547,14.357,5.547c5.781,0,11.584-2.347,15.787-6.976C514.363,240.288,513.723,226.784,505.019,218.869z
				 M234.661,405.323c0,23.531-19.136,42.667-42.667,42.667h-42.667c-23.531,0-42.667-19.136-42.667-42.667v-42.667
				c0-23.531,19.136-42.667,42.667-42.667h42.667c23.531,0,42.667,19.136,42.667,42.667V405.323z M234.661,255.989
				c0,23.531-19.136,42.667-42.667,42.667h-42.667c-23.531,0-42.667-19.136-42.667-42.667v-42.667
				c0-23.531,19.136-42.667,42.667-42.667h42.667c23.531,0,42.667,19.136,42.667,42.667V255.989z M405.328,405.323
				c0,23.531-19.136,42.667-42.667,42.667h-42.667c-23.531,0-42.667-19.136-42.667-42.667v-42.667
				c0-23.531,19.136-42.667,42.667-42.667h42.667c23.531,0,42.667,19.136,42.667,42.667V405.323z M405.328,255.989
				c0,23.531-19.136,42.667-42.667,42.667h-42.667c-23.531,0-42.667-19.136-42.667-42.667v-42.667
				c0-23.531,19.136-42.667,42.667-42.667h42.667c23.531,0,42.667,19.136,42.667,42.667V255.989z"/>
			<polygon points="149.328,213.323 149.328,255.989 192.016,255.989 191.995,213.323 			"/>
			<polygon points="319.995,362.656 319.995,405.323 362.683,405.323 362.661,362.656 			"/>
			<polygon points="149.328,362.656 149.328,405.323 192.016,405.323 191.995,362.656 			"/>
			<polygon points="319.995,213.323 319.995,255.989 362.683,255.989 362.661,213.323 			"/>
		</g>
	</g>
</g>
<g>
</g>
<g>
</g>
<g>
</g>
<g>
</g>
<g>
</g>
<g>
</g>
<g>
</g>
<g>
</g>
<g>
</g>
<g>
</g>
<g>
</g>
<g>
</g>
<g>
</g>
<g>
</g>
<g>
</g>
</svg>
